<svg width="256" height="256" viewBox="0 0 256 256" fill="none" xmlns="http://www.w3.org/2000/svg">
  <rect width="256" height="256" rx="72" fill="#FFF4EC"/>
  <circle cx="48" cy="50" r="76" fill="#FFE4E8"/>
  <path d="M128 212C87 184 42 147 42 92C42 57 67 32 100 32C118 32 133 38 146 56C159 38 174 32 192 32C225 32 250 57 250 92C250 147 205 184 128 212Z" fill="url(#brand-heart)"/>
  <path d="M58 110C79 86 107 85 133 93C158 101 186 102 209 86" stroke="#FFF4EC" stroke-width="20" stroke-linecap="round"/>
  <path d="M67 131C89 147 113 151 138 147C169 142 194 125 219 120" stroke="#FFF4EC" stroke-width="20" stroke-linecap="round"/>
  <path d="M169 60C179 52 188 48 196 48C202 48 206 52 206 58C206 66 196 75 185 80" stroke="#FFF4EC" stroke-width="12" stroke-linecap="round"/>
  <path d="M77 142C69 151 63 162 63 170C63 176 68 180 74 180C83 180 93 171 102 159" stroke="#FFF4EC" stroke-width="12" stroke-linecap="round"/>
  <defs>
    <linearGradient id="brand-heart" x1="56" y1="40" x2="211" y2="192" gradientUnits="userSpaceOnUse">
      <stop stop-color="#FF6B7D"/>
      <stop offset="1" stop-color="#E9466A"/>
    </linearGradient>
  </defs>
</svg>
