<svg width="1200" height="630" viewBox="0 0 1200 630" fill="none" xmlns="http://www.w3.org/2000/svg">
  <rect width="1200" height="630" fill="#FFF4EC"/>
  <rect width="1200" height="630" fill="url(#bg)"/>
  <circle cx="112" cy="126" r="184" fill="#FFE3E8"/>
  <circle cx="1094" cy="520" r="170" fill="#FFE5E9"/>
  <rect x="68" y="64" width="1064" height="502" rx="40" fill="white" fill-opacity="0.78" stroke="#F4DDDC"/>
  <path d="M173 254C141 229 108 200 108 159C108 132 128 112 152 112C165 112 176 117 186 131C196 117 207 112 220 112C244 112 264 132 264 159C264 200 231 229 173 254Z" fill="url(#heart)"/>
  <path d="M120 173C137 154 160 153 181 160C201 166 224 167 242 154" stroke="#FFF4EC" stroke-width="15" stroke-linecap="round"/>
  <path d="M127 189C145 202 165 205 185 202C210 198 231 184 250 180" stroke="#FFF4EC" stroke-width="15" stroke-linecap="round"/>
  <path d="M209 135C216 129 223 126 229 126C233 126 236 129 236 134C236 140 229 147 221 150" stroke="#FFF4EC" stroke-width="8" stroke-linecap="round"/>
  <path d="M135 198C129 205 124 213 124 219C124 223 127 226 132 226C138 226 145 220 152 212" stroke="#FFF4EC" stroke-width="8" stroke-linecap="round"/>
  <text x="312" y="138" fill="#111827" font-family="Poppins, Segoe UI, Arial, sans-serif" font-size="24" font-weight="700" letter-spacing="7">BE KIND TO</text>
  <text x="308" y="246" fill="#111827" font-family="Pacifico, Brush Script MT, cursive" font-size="90">Your Partner</text>
  <text x="312" y="304" fill="#111827" font-family="Poppins, Segoe UI, Arial, sans-serif" font-size="28" font-weight="700" letter-spacing="5">SMALL ACTIONS.</text>
  <text x="657" y="304" fill="#E9466A" font-family="Poppins, Segoe UI, Arial, sans-serif" font-size="28" font-weight="700" letter-spacing="5">BIG LOVE.</text>
  <text x="110" y="392" fill="#111827" font-family="Poppins, Segoe UI, Arial, sans-serif" font-size="56" font-weight="700">Daily prompts for stronger relationships.</text>
  <text x="110" y="446" fill="#6B7280" font-family="Poppins, Segoe UI, Arial, sans-serif" font-size="30" font-weight="500">Personalized kindness prompts, streak tracking, and a supportive</text>
  <text x="110" y="486" fill="#6B7280" font-family="Poppins, Segoe UI, Arial, sans-serif" font-size="30" font-weight="500">routine built around small, meaningful actions every day.</text>
  <rect x="802" y="360" width="242" height="56" rx="28" fill="url(#button)"/>
  <text x="862" y="396" fill="white" font-family="Poppins, Segoe UI, Arial, sans-serif" font-size="24" font-weight="700">I did this</text>
  <text x="984" y="396" fill="white" font-family="Segoe UI Emoji, Apple Color Emoji, Arial, sans-serif" font-size="24">❤</text>
  <rect x="802" y="442" width="242" height="18" rx="9" fill="#FDE5E8"/>
  <rect x="802" y="442" width="118" height="18" rx="9" fill="url(#button)"/>
  <defs>
    <linearGradient id="bg" x1="14" y1="12" x2="1186" y2="630" gradientUnits="userSpaceOnUse">
      <stop stop-color="#FFF8F4"/>
      <stop offset="0.44" stop-color="#FFF4EC"/>
      <stop offset="1" stop-color="#FFEDEB"/>
    </linearGradient>
    <linearGradient id="heart" x1="123" y1="118" x2="245" y2="241" gradientUnits="userSpaceOnUse">
      <stop stop-color="#FF6B7D"/>
      <stop offset="1" stop-color="#E9466A"/>
    </linearGradient>
    <linearGradient id="button" x1="802" y1="388" x2="1044" y2="388" gradientUnits="userSpaceOnUse">
      <stop stop-color="#FF6B7D"/>
      <stop offset="1" stop-color="#E9466A"/>
    </linearGradient>
  </defs>
</svg>
